<svg xmlns="http://www.w3.org/2000/svg" width="180" height="240" viewBox="0 0 180 240">
    <text x="29.9" y="43.3" fill="#fff" stroke="#fff" stroke-width="0" font-size="38" font-weight="900"
          font-family="sans-serif">HTML
    </text>
    <path fill="#e44d26" d="M149.8 207.4L90 223.7l-59.7-16.3L17 60.4h146"/>
    <path fill="#f16529" stroke="null" d="M90 211.2l48.4-13.3 11-125.6h-60"/>
    <path fill="#ebebeb" stroke="null"
          d="M49 145h41v-18H65.8l-2-18.4h26V90.4h-46l.4 5M90 174l-20.2-5.4-1-14.3H50.3l2.4 28.3L90 193v-19"/>
    <path fill="#fff"
          d="M127.3 127H89.8v18h22.5l-2 23.4-20.6 5.6v19l37.6-10.6.3-3 4.2-47.4.5-5m3-31.5l.3-5h-46v18l44.4.2.3-3.8"/>
</svg>